<svg xmlns="http://www.w3.org/2000/svg" xmlns:xlink="http://www.w3.org/1999/xlink" width="1920" zoomAndPan="magnify" viewBox="0 0 1440 809.999993" height="1080" preserveAspectRatio="xMidYMid meet" version="1.0"><defs><g/></defs><path fill="#4d5aae" d="M 893.269531 129.335938 C 769.308594 60.761719 603.246094 132.003906 516.714844 210.980469 C 491.992188 233.546875 432.050781 289.832031 417.898438 380.042969 C 400.3125 492.101562 457.867188 627.925781 589.859375 686.027344 C 733.527344 749.261719 894.167969 689.332031 969.347656 592.046875 C 1039.667969 501.066406 1025.589844 393.9375 1020.5625 355.664062 C 1014.664062 310.761719 997.121094 186.789062 893.269531 129.335938 " fill-opacity="1" fill-rule="nonzero"/><path fill="#ffffff" d="M 963.136719 198.589844 L 488.605469 198.589844 C 478.132812 198.589844 469.640625 207.078125 469.640625 217.554688 L 469.640625 542.902344 C 469.640625 553.375 478.132812 561.863281 488.605469 561.863281 L 963.136719 561.863281 C 973.609375 561.863281 982.101562 553.375 982.101562 542.902344 L 982.101562 217.554688 C 982.101562 207.078125 973.609375 198.589844 963.136719 198.589844 " fill-opacity="1" fill-rule="nonzero"/><path fill="#4d5aae" d="M 955.554688 248.527344 L 496.191406 248.527344 L 496.191406 225.769531 L 955.554688 225.769531 L 955.554688 248.527344 " fill-opacity="1" fill-rule="nonzero"/><path fill="#4d5aae" d="M 955.554688 416.582031 L 496.191406 416.582031 L 496.191406 265.164062 L 955.554688 265.164062 L 955.554688 416.582031 " fill-opacity="1" fill-rule="nonzero"/><path fill="#ffffff" d="M 945.085938 237.152344 C 945.085938 240.175781 942.636719 242.628906 939.605469 242.628906 C 936.582031 242.628906 934.128906 240.175781 934.128906 237.152344 C 934.128906 234.125 936.582031 231.667969 939.605469 231.667969 C 942.636719 231.667969 945.085938 234.125 945.085938 237.152344 " fill-opacity="1" fill-rule="nonzero"/><path fill="#4d5aae" d="M 640.523438 521.40625 L 496.191406 521.40625 L 496.191406 427.003906 L 640.523438 427.003906 L 640.523438 521.40625 " fill-opacity="1" fill-rule="nonzero"/><path fill="#4d5aae" d="M 798.035156 521.40625 L 653.707031 521.40625 L 653.707031 427.003906 L 798.035156 427.003906 L 798.035156 521.40625 " fill-opacity="1" fill-rule="nonzero"/><path fill="#4d5aae" d="M 955.554688 521.402344 L 811.226562 521.402344 L 811.226562 427.003906 L 955.554688 427.003906 L 955.554688 521.402344 " fill-opacity="1" fill-rule="nonzero"/><path fill="#ffffff" d="M 894.917969 262.652344 L 631.539062 262.652344 C 624.871094 262.652344 619.464844 268.058594 619.464844 274.730469 L 619.464844 391.453125 C 619.464844 398.117188 624.871094 403.523438 631.539062 403.523438 L 894.917969 403.523438 C 901.585938 403.523438 906.992188 398.117188 906.992188 391.453125 L 906.992188 274.730469 C 906.992188 268.058594 901.585938 262.652344 894.917969 262.652344 " fill-opacity="1" fill-rule="nonzero"/><path fill="#000000" d="M 631.539062 263.761719 C 625.488281 263.761719 620.566406 268.679688 620.566406 274.730469 L 620.566406 391.453125 C 620.566406 397.503906 625.488281 402.421875 631.539062 402.421875 L 894.910156 402.421875 C 900.964844 402.421875 905.882812 397.503906 905.882812 391.453125 L 905.882812 274.730469 C 905.882812 268.679688 900.964844 263.761719 894.910156 263.761719 Z M 894.910156 404.625 L 631.539062 404.625 C 624.273438 404.625 618.359375 398.714844 618.359375 391.453125 L 618.359375 274.730469 C 618.359375 267.464844 624.273438 261.550781 631.539062 261.550781 L 894.910156 261.550781 C 902.179688 261.550781 908.089844 267.464844 908.089844 274.730469 L 908.089844 391.453125 C 908.089844 398.714844 902.179688 404.625 894.910156 404.625 " fill-opacity="1" fill-rule="nonzero"/><path fill="#000000" d="M 897.390625 283.570312 L 629.0625 283.570312 C 628.457031 283.570312 627.960938 283.078125 627.960938 282.46875 C 627.960938 281.859375 628.457031 281.367188 629.0625 281.367188 L 897.390625 281.367188 C 898 281.367188 898.496094 281.859375 898.496094 282.46875 C 898.496094 283.078125 898 283.570312 897.390625 283.570312 " fill-opacity="1" fill-rule="nonzero"/><path fill="#4d5aae" d="M 640.984375 271.941406 C 640.984375 273.652344 639.597656 275.035156 637.890625 275.035156 C 636.179688 275.035156 634.792969 273.652344 634.792969 271.941406 C 634.792969 270.226562 636.179688 268.84375 637.890625 268.84375 C 639.597656 268.84375 640.984375 270.226562 640.984375 271.941406 " fill-opacity="1" fill-rule="nonzero"/><path fill="#4d5aae" d="M 653.367188 271.941406 C 653.367188 273.652344 651.980469 275.035156 650.273438 275.035156 C 648.5625 275.035156 647.179688 273.652344 647.179688 271.941406 C 647.179688 270.226562 648.5625 268.84375 650.273438 268.84375 C 651.980469 268.84375 653.367188 270.226562 653.367188 271.941406 " fill-opacity="1" fill-rule="nonzero"/><path fill="#4d5aae" d="M 665.753906 271.941406 C 665.753906 273.652344 664.371094 275.035156 662.660156 275.035156 C 660.945312 275.035156 659.5625 273.652344 659.5625 271.941406 C 659.5625 270.226562 660.945312 268.84375 662.660156 268.84375 C 664.371094 268.84375 665.753906 270.226562 665.753906 271.941406 " fill-opacity="1" fill-rule="nonzero"/><path fill="#000000" d="M 897.550781 273.046875 L 880.105469 273.046875 C 879.496094 273.046875 879.003906 272.546875 879.003906 271.941406 C 879.003906 271.332031 879.496094 270.839844 880.105469 270.839844 L 897.550781 270.839844 C 898.160156 270.839844 898.652344 271.332031 898.652344 271.941406 C 898.652344 272.546875 898.160156 273.046875 897.550781 273.046875 " fill-opacity="1" fill-rule="nonzero"/><path fill="#000000" d="M 872.261719 273.046875 L 707.550781 273.046875 C 706.941406 273.046875 706.445312 272.554688 706.445312 271.945312 C 706.445312 271.332031 706.941406 270.839844 707.550781 270.839844 L 872.261719 270.839844 C 872.871094 270.839844 873.363281 271.332031 873.363281 271.945312 C 873.363281 272.554688 872.871094 273.046875 872.261719 273.046875 " fill-opacity="1" fill-rule="nonzero"/><path fill="#000000" d="M 688.558594 273.046875 L 673.183594 273.046875 C 672.574219 273.046875 672.078125 272.550781 672.078125 271.941406 C 672.078125 271.335938 672.574219 270.839844 673.183594 270.839844 L 688.558594 270.839844 C 689.171875 270.839844 689.660156 271.335938 689.660156 271.941406 C 689.660156 272.550781 689.171875 273.046875 688.558594 273.046875 " fill-opacity="1" fill-rule="nonzero"/><path fill="#4d5aae" d="M 717.117188 380.226562 L 637.742188 380.226562 L 637.742188 300.847656 L 717.117188 300.847656 L 717.117188 380.226562 " fill-opacity="1" fill-rule="nonzero"/><path fill="#4d5aae" d="M 749.054688 318.183594 L 731.714844 318.183594 L 731.714844 300.847656 L 749.054688 300.847656 L 749.054688 318.183594 " fill-opacity="1" fill-rule="nonzero"/><path fill="#4d5aae" d="M 889.5625 318.183594 L 760.917969 318.183594 L 760.917969 300.847656 L 889.5625 300.847656 L 889.5625 318.183594 " fill-opacity="1" fill-rule="nonzero"/><path fill="#4d5aae" d="M 749.054688 349.207031 L 731.714844 349.207031 L 731.714844 331.871094 L 749.054688 331.871094 L 749.054688 349.207031 " fill-opacity="1" fill-rule="nonzero"/><path fill="#4d5aae" d="M 889.5625 349.203125 L 760.917969 349.203125 L 760.917969 331.871094 L 889.5625 331.871094 L 889.5625 349.203125 " fill-opacity="1" fill-rule="nonzero"/><path fill="#4d5aae" d="M 749.054688 380.226562 L 731.714844 380.226562 L 731.714844 362.890625 L 749.054688 362.890625 L 749.054688 380.226562 " fill-opacity="1" fill-rule="nonzero"/><path fill="#4d5aae" d="M 889.5625 380.226562 L 760.917969 380.226562 L 760.917969 362.890625 L 889.5625 362.890625 L 889.5625 380.226562 " fill-opacity="1" fill-rule="nonzero"/><path fill="#5479f7" d="M 1008.996094 135.316406 L 673.761719 135.316406 C 665.273438 135.316406 658.390625 142.199219 658.390625 150.6875 L 658.390625 299.253906 C 658.390625 307.746094 665.273438 314.625 673.761719 314.625 L 1008.996094 314.625 C 1017.484375 314.625 1024.371094 307.746094 1024.371094 299.253906 L 1024.371094 150.6875 C 1024.371094 142.199219 1017.484375 135.316406 1008.996094 135.316406 " fill-opacity="1" fill-rule="nonzero"/><path fill="#000000" d="M 673.761719 136.421875 C 665.890625 136.421875 659.496094 142.824219 659.496094 150.691406 L 659.496094 299.253906 C 659.496094 307.125 665.890625 313.523438 673.761719 313.523438 L 1008.996094 313.523438 C 1016.859375 313.523438 1023.261719 307.125 1023.261719 299.253906 L 1023.261719 150.691406 C 1023.261719 142.824219 1016.859375 136.421875 1008.996094 136.421875 Z M 1008.996094 315.730469 L 673.761719 315.730469 C 664.675781 315.730469 657.289062 308.339844 657.289062 299.253906 L 657.289062 150.691406 C 657.289062 141.605469 664.675781 134.214844 673.761719 134.214844 L 1008.996094 134.214844 C 1018.078125 134.214844 1025.46875 141.605469 1025.46875 150.691406 L 1025.46875 299.253906 C 1025.46875 308.339844 1018.078125 315.730469 1008.996094 315.730469 " fill-opacity="1" fill-rule="nonzero"/><path fill="#ffffff" d="M 1012.148438 161.644531 L 670.609375 161.644531 C 669.996094 161.644531 669.503906 161.148438 669.503906 160.542969 C 669.503906 159.933594 669.996094 159.4375 670.609375 159.4375 L 1012.148438 159.4375 C 1012.757812 159.4375 1013.25 159.933594 1013.25 160.542969 C 1013.25 161.148438 1012.757812 161.644531 1012.148438 161.644531 " fill-opacity="1" fill-rule="nonzero"/><path fill="#ffffff" d="M 685.777344 147.144531 C 685.777344 149.320312 684.011719 151.085938 681.835938 151.085938 C 679.660156 151.085938 677.894531 149.320312 677.894531 147.144531 C 677.894531 144.96875 679.660156 143.203125 681.835938 143.203125 C 684.011719 143.203125 685.777344 144.96875 685.777344 147.144531 " fill-opacity="1" fill-rule="nonzero"/><path fill="#ffffff" d="M 701.542969 147.144531 C 701.542969 149.320312 699.777344 151.085938 697.601562 151.085938 C 695.425781 151.085938 693.660156 149.320312 693.660156 147.144531 C 693.660156 144.96875 695.425781 143.203125 697.601562 143.203125 C 699.777344 143.203125 701.542969 144.96875 701.542969 147.144531 " fill-opacity="1" fill-rule="nonzero"/><path fill="#ffffff" d="M 717.304688 147.144531 C 717.304688 149.320312 715.539062 151.085938 713.363281 151.085938 C 711.1875 151.085938 709.425781 149.320312 709.425781 147.144531 C 709.425781 144.96875 711.1875 143.203125 713.363281 143.203125 C 715.539062 143.203125 717.304688 144.96875 717.304688 147.144531 " fill-opacity="1" fill-rule="nonzero"/><path fill="#ffffff" d="M 1012.34375 148.246094 L 990.144531 148.246094 C 989.53125 148.246094 989.039062 147.753906 989.039062 147.144531 C 989.039062 146.535156 989.53125 146.042969 990.144531 146.042969 L 1012.34375 146.042969 C 1012.953125 146.042969 1013.445312 146.535156 1013.445312 147.144531 C 1013.445312 147.753906 1012.953125 148.246094 1012.34375 148.246094 " fill-opacity="1" fill-rule="nonzero"/><path fill="#ffffff" d="M 980.15625 148.246094 L 770.507812 148.246094 C 769.902344 148.246094 769.40625 147.753906 769.40625 147.144531 C 769.40625 146.535156 769.902344 146.042969 770.507812 146.042969 L 980.15625 146.042969 C 980.769531 146.042969 981.261719 146.535156 981.261719 147.144531 C 981.261719 147.753906 980.769531 148.246094 980.15625 148.246094 " fill-opacity="1" fill-rule="nonzero"/><path fill="#ffffff" d="M 746.34375 148.246094 L 726.765625 148.246094 C 726.160156 148.246094 725.660156 147.75 725.660156 147.140625 C 725.660156 146.53125 726.160156 146.039062 726.765625 146.039062 L 746.34375 146.039062 C 746.949219 146.039062 747.441406 146.53125 747.441406 147.140625 C 747.441406 147.75 746.949219 148.246094 746.34375 148.246094 " fill-opacity="1" fill-rule="nonzero"/><path fill="#ffffff" d="M 782.683594 284.972656 L 681.652344 284.972656 L 681.652344 183.9375 L 782.683594 183.9375 L 782.683594 284.972656 " fill-opacity="1" fill-rule="nonzero"/><path fill="#4d5aae" d="M 823.332031 206.003906 L 801.269531 206.003906 L 801.269531 183.9375 L 823.332031 183.9375 L 823.332031 206.003906 " fill-opacity="1" fill-rule="nonzero"/><path fill="#ffffff" d="M 1002.175781 206.003906 L 838.429688 206.003906 L 838.429688 183.941406 L 1002.175781 183.941406 L 1002.175781 206.003906 " fill-opacity="1" fill-rule="nonzero"/><path fill="#4d5aae" d="M 823.332031 245.484375 L 801.269531 245.484375 L 801.269531 223.421875 L 823.332031 223.421875 L 823.332031 245.484375 " fill-opacity="1" fill-rule="nonzero"/><path fill="#ffffff" d="M 1002.175781 245.488281 L 838.429688 245.488281 L 838.429688 223.421875 L 1002.175781 223.421875 L 1002.175781 245.488281 " fill-opacity="1" fill-rule="nonzero"/><path fill="#4d5aae" d="M 823.335938 284.96875 L 801.269531 284.96875 L 801.269531 262.90625 L 823.335938 262.90625 L 823.335938 284.96875 " fill-opacity="1" fill-rule="nonzero"/><path fill="#ffffff" d="M 1002.175781 284.972656 L 838.429688 284.972656 L 838.429688 262.910156 L 1002.175781 262.910156 L 1002.175781 284.972656 " fill-opacity="1" fill-rule="nonzero"/><path fill="#000000" d="M 487.019531 259.078125 C 482.667969 260.164062 478.414062 256.535156 471.816406 250.902344 C 463.796875 244.058594 458.207031 239.285156 457.910156 231.605469 C 457.648438 224.863281 461.570312 218.597656 466.085938 215.253906 C 468.679688 213.328125 472.613281 212.445312 480.476562 210.671875 C 489.476562 208.644531 490.632812 209.445312 495.847656 207.398438 C 501.921875 205.019531 502.871094 202.949219 505.660156 203.476562 C 510.179688 204.328125 514.253906 210.992188 514.164062 217.210938 C 514.046875 225.445312 506.722656 226.679688 498.464844 240.105469 C 491.5625 251.332031 492.179688 257.789062 487.019531 259.078125 " fill-opacity="1" fill-rule="nonzero"/><path fill="#5479f7" d="M 463.574219 286.769531 C 478.261719 281.972656 500.640625 278.539062 527.386719 287.058594 C 537.140625 290.164062 544.136719 298.75 545.339844 308.914062 L 567.128906 434.375 C 568.210938 443.496094 556.019531 452.363281 547.429688 455.617188 C 538.457031 459.015625 524.894531 462.234375 505.691406 462.234375 C 485.105469 462.234375 470.144531 463.425781 461.796875 459.773438 C 454.863281 456.734375 444.433594 449.390625 444.082031 441.835938 L 445.597656 312.878906 C 445.050781 301.125 452.386719 290.417969 463.574219 286.769531 " fill-opacity="1" fill-rule="nonzero"/><path fill="#5479f7" d="M 566.464844 340.679688 C 566.464844 340.679688 549.074219 292.5 529.570312 287.867188 L 539.484375 356.132812 L 566.464844 340.679688 " fill-opacity="1" fill-rule="nonzero"/><path fill="#5479f7" d="M 415.402344 360.117188 C 415.402344 360.117188 422.359375 334.238281 427.703125 319.691406 C 438.496094 290.277344 461.585938 287.507812 461.585938 287.507812 L 461.585938 359.902344 L 415.402344 360.117188 " fill-opacity="1" fill-rule="nonzero"/><path fill="#000000" d="M 504.03125 300.191406 C 484.960938 300.191406 468.234375 292.386719 467.425781 292.007812 C 466.875 291.746094 466.640625 291.089844 466.902344 290.539062 C 467.164062 289.988281 467.820312 289.753906 468.371094 290.015625 C 468.59375 290.117188 490.847656 300.488281 512.632812 297.398438 C 513.238281 297.316406 513.796875 297.734375 513.878906 298.335938 C 513.964844 298.941406 513.546875 299.5 512.945312 299.582031 C 509.949219 300.007812 506.964844 300.191406 504.03125 300.191406 " fill-opacity="1" fill-rule="nonzero"/><path fill="#99b9ff" d="M 496.746094 384.4375 L 582.167969 384.308594 C 584.332031 384.304688 586.214844 382.828125 586.730469 380.722656 L 603.867188 311.167969 C 604.601562 308.199219 602.347656 305.328125 599.289062 305.335938 L 513.867188 305.464844 C 511.703125 305.46875 509.820312 306.949219 509.304688 309.046875 L 492.167969 378.601562 C 491.433594 381.570312 493.6875 384.441406 496.746094 384.4375 " fill-opacity="1" fill-rule="nonzero"/><path fill="#000000" d="M 496.746094 383.332031 L 496.746094 384.4375 L 496.746094 383.332031 L 582.164062 383.203125 C 583.824219 383.199219 585.261719 382.070312 585.660156 380.460938 L 602.796875 310.90625 C 603.066406 309.820312 602.824219 308.695312 602.132812 307.820312 C 601.445312 306.941406 600.410156 306.4375 599.292969 306.4375 C 599.292969 306.4375 599.289062 306.4375 599.289062 306.4375 L 513.871094 306.566406 C 512.210938 306.570312 510.773438 307.699219 510.375 309.3125 L 493.238281 378.863281 C 492.96875 379.949219 493.210938 381.074219 493.902344 381.957031 C 494.589844 382.832031 495.625 383.332031 496.738281 383.332031 C 496.742188 383.332031 496.742188 383.332031 496.746094 383.332031 Z M 496.738281 385.539062 C 494.941406 385.539062 493.277344 384.730469 492.167969 383.316406 C 491.054688 381.898438 490.664062 380.085938 491.097656 378.339844 L 508.234375 308.785156 C 508.871094 306.183594 511.191406 304.363281 513.867188 304.363281 L 599.285156 304.230469 C 601.109375 304.210938 602.757812 305.039062 603.867188 306.453125 C 604.980469 307.871094 605.371094 309.6875 604.941406 311.433594 L 587.800781 380.988281 C 587.160156 383.585938 584.84375 385.40625 582.167969 385.410156 L 496.746094 385.539062 C 496.746094 385.539062 496.742188 385.539062 496.738281 385.539062 " fill-opacity="1" fill-rule="nonzero"/><path fill="#ffffff" d="M 597.574219 339.898438 L 595.074219 346.859375 L 574.519531 337.109375 C 574.519531 337.109375 563.242188 346.90625 590.636719 359.398438 C 602.054688 364.601562 597.574219 339.898438 597.574219 339.898438 " fill-opacity="1" fill-rule="nonzero"/><path fill="#000000" d="M 574.773438 338.449219 C 574.113281 339.261719 573.035156 341 573.394531 343.402344 C 573.90625 346.792969 577.390625 352.144531 591.09375 358.394531 C 593.679688 359.570312 594.722656 358.765625 595.0625 358.496094 C 597.605469 356.523438 597.578125 349.660156 597.082031 344.53125 L 596.113281 347.234375 C 596.007812 347.523438 595.785156 347.761719 595.496094 347.875 C 595.207031 348 594.882812 347.988281 594.601562 347.855469 Z M 593.5 361.222656 C 592.492188 361.222656 591.386719 360.949219 590.179688 360.398438 C 578.421875 355.039062 572.039062 349.417969 571.207031 343.683594 C 570.554688 339.15625 573.667969 336.394531 573.800781 336.277344 C 574.128906 335.988281 574.597656 335.925781 574.996094 336.113281 L 594.449219 345.339844 L 596.535156 339.527344 C 596.703125 339.054688 597.175781 338.761719 597.664062 338.800781 C 598.160156 338.839844 598.570312 339.210938 598.660156 339.703125 C 598.964844 341.390625 601.5 356.289062 596.417969 360.238281 C 595.574219 360.898438 594.597656 361.222656 593.5 361.222656 " fill-opacity="1" fill-rule="nonzero"/><path fill="#ffffff" d="M 472.339844 320.519531 C 472.339844 320.519531 433.976562 342.128906 426.066406 348.910156 C 418.15625 355.691406 409.574219 360.839844 420.761719 375.621094 C 431.949219 390.40625 479.460938 331.058594 479.460938 331.058594 C 479.460938 331.058594 488.609375 332.554688 491.78125 320.097656 C 491.78125 320.097656 507.222656 320.628906 507.773438 315.777344 L 485.992188 311.917969 C 483.175781 311.421875 480.296875 312.347656 478.300781 314.398438 L 472.339844 320.519531 " fill-opacity="1" fill-rule="nonzero"/><path fill="#000000" d="M 472.339844 320.519531 L 472.347656 320.519531 Z M 484.484375 312.886719 C 482.46875 312.886719 480.523438 313.695312 479.089844 315.164062 L 473.128906 321.285156 C 473.058594 321.363281 472.972656 321.425781 472.882812 321.480469 C 472.5 321.691406 434.523438 343.113281 426.785156 349.75 C 426.171875 350.277344 425.550781 350.792969 424.9375 351.304688 C 417.683594 357.367188 411.953125 362.15625 421.640625 374.957031 C 422.605469 376.230469 423.902344 376.859375 425.605469 376.882812 C 425.636719 376.882812 425.671875 376.882812 425.707031 376.882812 C 441.179688 376.886719 478.226562 330.835938 478.601562 330.367188 C 478.847656 330.054688 479.246094 329.90625 479.640625 329.96875 C 479.96875 330.019531 487.84375 331.09375 490.710938 319.828125 C 490.839844 319.324219 491.304688 318.972656 491.820312 318.996094 C 496.859375 319.164062 504.105469 318.496094 506.136719 316.609375 L 485.800781 313.003906 C 485.359375 312.925781 484.917969 312.886719 484.484375 312.886719 Z M 425.695312 379.089844 C 425.652344 379.089844 425.613281 379.089844 425.574219 379.089844 C 423.179688 379.054688 421.265625 378.113281 419.882812 376.289062 C 408.925781 361.808594 416.347656 355.609375 423.523438 349.613281 C 424.128906 349.105469 424.742188 348.59375 425.347656 348.074219 C 433.089844 341.4375 468.742188 321.277344 471.660156 319.632812 L 477.507812 313.625 C 479.761719 311.3125 483.003906 310.269531 486.183594 310.832031 L 507.964844 314.695312 C 508.539062 314.792969 508.933594 315.324219 508.867188 315.90625 C 508.285156 321.027344 496.636719 321.285156 492.617188 321.222656 C 489.585938 331.671875 482.25 332.273438 479.960938 332.199219 C 475.804688 337.335938 441.550781 379.085938 425.695312 379.089844 " fill-opacity="1" fill-rule="nonzero"/><path fill="#ffffff" d="M 517.921875 633.40625 L 505.203125 671.363281 C 505.203125 671.363281 519.058594 670.175781 520.382812 670.4375 C 521.707031 670.695312 537.914062 635.824219 537.914062 635.824219 L 517.921875 633.40625 " fill-opacity="1" fill-rule="nonzero"/><path fill="#000000" d="M 520.570312 669.347656 C 520.578125 669.351562 520.585938 669.351562 520.589844 669.351562 C 520.582031 669.351562 520.578125 669.351562 520.570312 669.347656 Z M 520.589844 669.351562 Z M 518.683594 634.609375 L 506.78125 670.121094 C 510.667969 669.800781 517.761719 669.242188 520.019531 669.308594 C 521.96875 666.796875 530.648438 648.792969 536.273438 636.738281 Z M 505.203125 672.464844 C 504.867188 672.464844 504.546875 672.308594 504.335938 672.042969 C 504.105469 671.75 504.039062 671.363281 504.15625 671.007812 L 516.878906 633.054688 C 517.042969 632.5625 517.53125 632.25 518.054688 632.3125 L 538.046875 634.726562 C 538.398438 634.769531 538.707031 634.976562 538.878906 635.289062 C 539.050781 635.597656 539.0625 635.96875 538.914062 636.289062 C 538.875 636.378906 534.8125 645.117188 530.636719 653.710938 C 521.828125 671.851562 521.277344 671.734375 520.171875 671.519531 C 519.222656 671.371094 510.898438 671.984375 505.296875 672.460938 C 505.265625 672.464844 505.234375 672.464844 505.203125 672.464844 " fill-opacity="1" fill-rule="nonzero"/><path fill="#99b9ff" d="M 508.117188 663.019531 C 508.117188 663.019531 527.246094 655.175781 530.785156 665.019531 C 535.285156 677.539062 542.316406 696.640625 542.316406 696.640625 C 543.511719 699.964844 541.21875 703.507812 537.699219 703.792969 C 530.707031 704.355469 520.28125 704.808594 515.421875 703.105469 C 507.753906 700.414062 495.03125 676.140625 495.03125 676.140625 L 498.949219 655.488281 C 498.949219 655.488281 505.890625 654.511719 508.117188 663.019531 " fill-opacity="1" fill-rule="nonzero"/><path fill="#000000" d="M 496.183594 675.96875 C 499.832031 682.855469 509.933594 700.011719 515.785156 702.0625 C 519.351562 703.316406 527.101562 703.539062 537.609375 702.691406 C 538.945312 702.585938 540.125 701.878906 540.851562 700.753906 C 541.574219 699.632812 541.730469 698.269531 541.28125 697.011719 C 541.210938 696.828125 534.195312 677.773438 529.746094 665.390625 C 529.179688 663.820312 528.144531 662.71875 526.574219 662.023438 C 520.371094 659.257812 508.652344 663.992188 508.535156 664.039062 C 508.238281 664.160156 507.90625 664.144531 507.621094 664.007812 C 507.339844 663.863281 507.128906 663.605469 507.050781 663.300781 C 505.507812 657.414062 501.554688 656.621094 499.871094 656.558594 Z M 526.433594 705.402344 C 521.929688 705.402344 517.730469 705.082031 515.058594 704.144531 C 507.070312 701.34375 494.578125 677.660156 494.050781 676.652344 C 493.9375 676.433594 493.898438 676.183594 493.945312 675.933594 L 497.867188 655.28125 C 497.957031 654.820312 498.328125 654.460938 498.796875 654.398438 C 498.871094 654.386719 506.0625 653.476562 508.828125 661.566406 C 512.09375 660.382812 521.566406 657.378906 527.46875 660.003906 C 529.589844 660.945312 531.054688 662.507812 531.820312 664.648438 C 536.269531 677.019531 543.28125 696.066406 543.351562 696.257812 C 544.042969 698.175781 543.804688 700.246094 542.707031 701.953125 C 541.605469 703.65625 539.8125 704.730469 537.785156 704.890625 C 534.28125 705.171875 530.246094 705.402344 526.433594 705.402344 " fill-opacity="1" fill-rule="nonzero"/><path fill="#000000" d="M 537.417969 696.625 L 517.769531 696.625 C 517.160156 696.625 516.667969 696.132812 516.667969 695.527344 C 516.667969 694.914062 517.160156 694.421875 517.769531 694.421875 L 537.417969 694.421875 C 538.027344 694.421875 538.519531 694.914062 538.519531 695.527344 C 538.519531 696.132812 538.027344 696.625 537.417969 696.625 " fill-opacity="1" fill-rule="nonzero"/><path fill="#ffffff" d="M 481.855469 642.730469 L 486.175781 680.910156 L 503.5625 676.140625 L 502.226562 641.742188 L 481.855469 642.730469 " fill-opacity="1" fill-rule="nonzero"/><path fill="#000000" d="M 483.082031 643.777344 L 487.128906 679.507812 L 502.425781 675.3125 L 501.164062 642.898438 Z M 486.175781 682.015625 C 485.957031 682.015625 485.742188 681.949219 485.558594 681.824219 C 485.289062 681.644531 485.117188 681.355469 485.082031 681.035156 L 480.757812 642.859375 C 480.726562 642.554688 480.816406 642.25 481.015625 642.015625 C 481.214844 641.785156 481.496094 641.648438 481.800781 641.628906 L 502.171875 640.640625 C 502.464844 640.625 502.753906 640.730469 502.96875 640.929688 C 503.1875 641.128906 503.316406 641.40625 503.328125 641.699219 L 504.664062 676.097656 C 504.6875 676.613281 504.351562 677.070312 503.855469 677.207031 L 486.46875 681.976562 C 486.371094 682 486.273438 682.015625 486.175781 682.015625 " fill-opacity="1" fill-rule="nonzero"/><path fill="#99b9ff" d="M 484.539062 709.039062 L 512.046875 709.039062 C 515.769531 709.039062 518.628906 705.738281 518.082031 702.054688 C 517.164062 695.84375 514.171875 685.539062 505.203125 671.363281 C 504.222656 669.8125 502.511719 668.871094 500.683594 668.871094 L 492.316406 668.871094 C 490.875 668.871094 489.664062 669.964844 489.511719 671.394531 L 488.882812 677.433594 L 485.238281 672.625 C 485.238281 672.625 478.734375 686.316406 478.433594 702.828125 C 478.371094 706.238281 481.125 709.039062 484.539062 709.039062 " fill-opacity="1" fill-rule="nonzero"/><path fill="#000000" d="M 485.503906 674.800781 C 483.8125 678.929688 479.769531 690.097656 479.535156 702.847656 C 479.511719 704.195312 480.019531 705.46875 480.964844 706.4375 C 481.914062 707.402344 483.183594 707.9375 484.539062 707.9375 L 512.046875 707.9375 C 513.503906 707.9375 514.886719 707.304688 515.835938 706.203125 C 516.785156 705.105469 517.203125 703.652344 516.992188 702.214844 C 516.097656 696.167969 513.164062 686.007812 504.269531 671.949219 C 503.5 670.730469 502.125 669.976562 500.683594 669.976562 L 492.316406 669.976562 C 491.433594 669.976562 490.703125 670.632812 490.609375 671.511719 L 489.976562 677.550781 C 489.929688 677.996094 489.613281 678.375 489.175781 678.496094 C 488.742188 678.617188 488.273438 678.460938 488 678.101562 Z M 512.046875 710.140625 L 484.539062 710.140625 C 482.585938 710.140625 480.761719 709.375 479.394531 707.984375 C 478.027344 706.589844 477.296875 704.753906 477.332031 702.804688 C 477.632812 686.25 483.972656 672.714844 484.242188 672.148438 C 484.40625 671.804688 484.742188 671.566406 485.125 671.527344 C 485.511719 671.480469 485.886719 671.648438 486.117188 671.957031 L 488.074219 674.539062 L 488.414062 671.28125 C 488.625 669.28125 490.300781 667.769531 492.316406 667.769531 L 500.683594 667.769531 C 502.910156 667.769531 504.945312 668.894531 506.136719 670.773438 C 515.234375 685.152344 518.25 695.636719 519.175781 701.894531 C 519.480469 703.960938 518.871094 706.058594 517.503906 707.644531 C 516.136719 709.230469 514.144531 710.140625 512.046875 710.140625 " fill-opacity="1" fill-rule="nonzero"/><path fill="#000000" d="M 515.421875 703.566406 L 482.492188 703.566406 C 481.882812 703.566406 481.386719 703.070312 481.386719 702.464844 C 481.386719 701.851562 481.882812 701.359375 482.492188 701.359375 L 515.421875 701.359375 C 516.03125 701.359375 516.527344 701.851562 516.527344 702.464844 C 516.527344 703.070312 516.03125 703.566406 515.421875 703.566406 " fill-opacity="1" fill-rule="nonzero"/><path fill="#000000" d="M 547.152344 413.449219 C 546.429688 411.691406 544.976562 410.34375 543.160156 409.773438 C 533.101562 406.617188 498.027344 398.300781 461.925781 421.457031 C 460.222656 422.546875 459.128906 424.378906 458.988281 426.398438 C 457.683594 444.746094 452.8125 540.65625 483.152344 654.214844 L 503.59375 652.761719 L 507.757812 458.59375 C 507.757812 458.59375 538.035156 529.773438 513.417969 643.0625 L 534.675781 646.988281 C 534.675781 646.988281 565.78125 606.082031 571.351562 543.574219 C 576.28125 488.28125 552.667969 426.882812 547.152344 413.449219 " fill-opacity="1" fill-rule="nonzero"/><path fill="#ffffff" d="M 488.363281 564.273438 C 488.347656 564.273438 488.332031 564.273438 488.316406 564.273438 C 469.164062 563.445312 467 537.433594 466.980469 537.167969 C 466.933594 536.5625 467.390625 536.035156 467.996094 535.988281 C 468.597656 535.945312 469.132812 536.398438 469.179688 537.007812 C 469.199219 537.25 471.21875 561.324219 488.410156 562.066406 C 489.019531 562.09375 489.488281 562.605469 489.464844 563.21875 C 489.4375 563.808594 488.949219 564.273438 488.363281 564.273438 " fill-opacity="1" fill-rule="nonzero"/><path fill="#ffffff" d="M 509.539062 477.496094 C 508.941406 477.496094 508.453125 477.027344 508.4375 476.425781 L 507.714844 452.140625 C 507.703125 451.769531 507.878906 451.417969 508.183594 451.207031 L 520.925781 442.25 C 521.421875 441.898438 522.109375 442.015625 522.460938 442.515625 C 522.808594 443.011719 522.691406 443.699219 522.191406 444.050781 L 509.9375 452.667969 L 510.640625 476.363281 C 510.660156 476.96875 510.179688 477.480469 509.570312 477.496094 C 509.558594 477.496094 509.550781 477.496094 509.539062 477.496094 " fill-opacity="1" fill-rule="nonzero"/><path fill="#ffffff" d="M 478.523438 280.695312 C 482.28125 278.207031 484.472656 273.945312 484.371094 269.445312 L 483.941406 250.75 C 483.8125 250.632812 483.6875 250.515625 483.5625 250.398438 C 483.5625 250.398438 476.074219 250.898438 474.984375 247.085938 C 473.894531 243.273438 479.1875 242.542969 479.1875 242.542969 C 479.1875 242.542969 474.1875 232.019531 487.125 232.140625 C 490.597656 232.171875 491.839844 226.414062 497.539062 225.125 C 497.539062 225.125 500.355469 224.882812 503.214844 232.273438 L 509.472656 241.539062 L 506.347656 243.253906 C 507.117188 246.777344 507.449219 250.660156 506.976562 254.777344 C 506.839844 255.960938 506.023438 256.957031 504.886719 257.324219 C 503.945312 257.628906 502.679688 257.953125 501.1875 258.125 L 502.195312 270.636719 C 502.636719 276.113281 505.507812 281.097656 510.003906 284.253906 C 514.347656 287.304688 518.359375 289.453125 518.359375 289.453125 C 518.359375 289.453125 495.296875 292.609375 468.777344 286.558594 C 468.777344 286.558594 473.898438 283.757812 478.523438 280.695312 " fill-opacity="1" fill-rule="nonzero"/><path fill="#000000" d="M 478.523438 280.695312 L 478.53125 280.695312 Z M 471.839844 286.09375 C 490.871094 290.011719 507.847656 289.273438 514.832031 288.703125 C 513.324219 287.796875 511.390625 286.578125 509.371094 285.15625 C 504.578125 281.796875 501.5625 276.535156 501.09375 270.726562 L 500.085938 258.214844 C 500.039062 257.625 500.46875 257.101562 501.058594 257.03125 C 502.253906 256.890625 503.425781 256.636719 504.546875 256.277344 C 505.269531 256.042969 505.792969 255.40625 505.878906 254.652344 C 506.296875 251.015625 506.09375 247.261719 505.269531 243.488281 C 505.164062 243.007812 505.386719 242.519531 505.816406 242.285156 L 507.878906 241.152344 L 502.300781 232.898438 C 502.253906 232.828125 502.214844 232.753906 502.183594 232.675781 C 500.007812 227.039062 498.007812 226.324219 497.621094 226.242188 C 495.027344 226.878906 493.507812 228.554688 492.035156 230.175781 C 490.605469 231.753906 489.25 233.246094 487.152344 233.246094 C 487.066406 233.246094 486.980469 233.242188 486.894531 233.242188 C 483.375 233.242188 481.058594 234.074219 480.015625 235.710938 C 478.425781 238.199219 480.167969 242.03125 480.183594 242.066406 C 480.335938 242.382812 480.328125 242.757812 480.160156 243.0625 C 479.992188 243.375 479.6875 243.585938 479.339844 243.636719 C 478.691406 243.726562 476.863281 244.191406 476.191406 245.226562 C 475.910156 245.660156 475.863281 246.152344 476.046875 246.78125 C 476.734375 249.199219 481.777344 249.414062 483.488281 249.300781 C 483.792969 249.28125 484.097656 249.390625 484.324219 249.597656 L 484.691406 249.945312 C 484.910156 250.148438 485.039062 250.429688 485.042969 250.726562 L 485.472656 269.421875 C 485.585938 274.351562 483.214844 278.910156 479.132812 281.613281 C 476.542969 283.332031 473.773438 284.976562 471.839844 286.09375 Z M 502.96875 291.367188 C 493.839844 291.367188 481.5625 290.609375 468.53125 287.632812 C 468.085938 287.53125 467.746094 287.164062 467.683594 286.710938 C 467.621094 286.257812 467.847656 285.808594 468.25 285.59375 C 468.300781 285.5625 473.382812 282.777344 477.914062 279.773438 C 481.363281 277.492188 483.363281 273.640625 483.265625 269.472656 L 482.855469 251.53125 C 480.691406 251.554688 475.027344 251.257812 473.925781 247.390625 C 473.570312 246.152344 473.714844 244.988281 474.347656 244.015625 C 475.171875 242.753906 476.632812 242.089844 477.710938 241.753906 C 477.171875 240.066406 476.570312 237.003906 478.15625 234.523438 C 479.632812 232.210938 482.574219 231.035156 486.902344 231.035156 C 486.984375 231.035156 487.0625 231.035156 487.152344 231.039062 C 488.21875 231.039062 489.085938 230.144531 490.402344 228.695312 C 491.972656 226.964844 493.921875 224.8125 497.296875 224.046875 C 497.34375 224.039062 497.394531 224.03125 497.445312 224.027344 C 498.050781 223.976562 501.207031 224.105469 504.199219 231.765625 L 510.386719 240.921875 C 510.558594 241.175781 510.617188 241.5 510.542969 241.800781 C 510.472656 242.101562 510.273438 242.359375 510.003906 242.507812 L 507.589844 243.828125 C 508.324219 247.566406 508.488281 251.289062 508.070312 254.902344 C 507.882812 256.511719 506.765625 257.875 505.226562 258.375 C 504.300781 258.675781 503.34375 258.90625 502.367188 259.070312 L 503.292969 270.550781 C 503.707031 275.699219 506.382812 280.371094 510.636719 283.351562 C 514.871094 286.324219 518.839844 288.464844 518.878906 288.484375 C 519.300781 288.710938 519.527344 289.179688 519.441406 289.652344 C 519.359375 290.121094 518.980469 290.484375 518.507812 290.550781 C 518.390625 290.566406 512.339844 291.367188 502.96875 291.367188 " fill-opacity="1" fill-rule="nonzero"/><path fill="#ffffff" d="M 501.1875 258.128906 C 501.1875 258.128906 492.980469 258.414062 489.71875 253.949219 L 501.1875 258.128906 " fill-opacity="1" fill-rule="nonzero"/><path fill="#000000" d="M 500.847656 259.234375 C 499.113281 259.234375 492.011719 258.957031 488.828125 254.601562 C 488.46875 254.105469 488.578125 253.417969 489.070312 253.058594 C 489.558594 252.699219 490.25 252.808594 490.609375 253.300781 C 493.492188 257.246094 501.070312 257.027344 501.148438 257.023438 C 501.773438 257.003906 502.269531 257.476562 502.289062 258.085938 C 502.308594 258.695312 501.835938 259.207031 501.226562 259.226562 C 501.1875 259.226562 501.054688 259.234375 500.847656 259.234375 " fill-opacity="1" fill-rule="nonzero"/><path fill="#5479f7" d="M 970.871094 654.382812 L 926.722656 654.382812 C 924.28125 654.382812 922.480469 656.675781 923.066406 659.042969 C 925.929688 670.519531 930.238281 680.003906 933.425781 686.0625 C 935.773438 690.507812 940.378906 693.296875 945.410156 693.296875 L 952.179688 693.296875 C 957.207031 693.296875 961.8125 690.507812 964.160156 686.0625 C 967.351562 680.003906 971.660156 670.519531 974.519531 659.042969 C 975.109375 656.675781 973.304688 654.382812 970.871094 654.382812 " fill-opacity="1" fill-rule="nonzero"/><path fill="#000000" d="M 926.722656 655.488281 C 925.894531 655.488281 925.128906 655.863281 924.621094 656.515625 C 924.117188 657.160156 923.9375 657.984375 924.136719 658.773438 C 926.988281 670.207031 931.292969 679.644531 934.402344 685.546875 C 936.566406 689.644531 940.78125 692.195312 945.410156 692.195312 L 952.171875 692.195312 C 956.804688 692.195312 961.023438 689.644531 963.183594 685.546875 C 966.292969 679.644531 970.597656 670.210938 973.449219 658.773438 C 973.644531 657.984375 973.46875 657.160156 972.964844 656.515625 C 972.453125 655.863281 971.691406 655.488281 970.867188 655.488281 Z M 952.171875 694.402344 L 945.410156 694.402344 C 939.957031 694.402344 934.992188 691.398438 932.453125 686.574219 C 929.28125 680.5625 924.902344 670.957031 921.996094 659.308594 C 921.632812 657.851562 921.957031 656.335938 922.882812 655.15625 C 923.816406 653.964844 925.210938 653.285156 926.722656 653.285156 L 970.867188 653.285156 C 972.375 653.285156 973.773438 653.964844 974.707031 655.15625 C 975.632812 656.339844 975.953125 657.851562 975.589844 659.308594 C 972.6875 670.960938 968.296875 680.566406 965.132812 686.574219 C 962.589844 691.398438 957.625 694.402344 952.171875 694.402344 " fill-opacity="1" fill-rule="nonzero"/><path fill="#5479f7" d="M 941.21875 543.277344 C 941.359375 535.761719 940.394531 524.117188 933.867188 512.511719 C 920.273438 488.355469 890.578125 478.589844 887.644531 482.480469 C 885.515625 485.304688 896.351562 496.914062 916.304688 518.296875 C 926.371094 529.078125 935.136719 537.570312 941.21875 543.277344 " fill-opacity="1" fill-rule="nonzero"/><path fill="#5479f7" d="M 944.328125 543.503906 C 943.40625 528.386719 944.632812 516.0625 945.921875 507.648438 C 950.800781 475.777344 962.816406 459.449219 965.53125 455.894531 C 967.527344 453.277344 977.25 440.527344 981.4375 442.480469 C 985.039062 444.160156 982.941406 455.96875 979.710938 473.515625 C 976.714844 489.789062 975.21875 497.929688 972.128906 505.582031 C 968.691406 514.085938 961.152344 529.027344 944.328125 543.503906 " fill-opacity="1" fill-rule="nonzero"/><path fill="#5479f7" d="M 941.316406 546.679688 C 937.304688 542.847656 926.96875 534.085938 913.160156 534.546875 C 906.738281 534.765625 898.726562 537 898.671875 539.410156 C 898.605469 542.613281 912.644531 545.59375 921.089844 546.613281 C 929.492188 547.632812 936.539062 547.222656 941.316406 546.679688 " fill-opacity="1" fill-rule="nonzero"/><path fill="#5479f7" d="M 947.988281 553.515625 C 949.828125 556.414062 952.449219 560.265625 955.917969 564.546875 C 957.59375 566.621094 962.558594 572.699219 968.332031 577.648438 C 977.320312 585.359375 992.453125 593.917969 995.578125 590.652344 C 998.578125 587.515625 991.34375 572.59375 979.8125 565.105469 C 976.007812 562.632812 972.078125 561.195312 965.226562 558.683594 C 958.234375 556.121094 952.242188 554.511719 947.988281 553.515625 " fill-opacity="1" fill-rule="nonzero"/><path fill="#000000" d="M 949.117188 651.277344 C 949.105469 651.277344 949.089844 651.277344 949.078125 651.277344 C 948.464844 651.253906 947.992188 650.742188 948.015625 650.132812 C 950.152344 596.15625 942.988281 548.71875 942.914062 548.25 C 942.820312 547.644531 943.234375 547.085938 943.839844 546.992188 C 944.433594 546.894531 945.003906 547.3125 945.09375 547.914062 C 945.167969 548.390625 952.367188 596.035156 950.21875 650.222656 C 950.195312 650.8125 949.707031 651.277344 949.117188 651.277344 " fill-opacity="1" fill-rule="nonzero"/><path fill="#000000" d="M 945.152344 651.277344 C 944.582031 651.277344 944.097656 650.835938 944.054688 650.261719 C 944.011719 649.734375 939.902344 597.445312 923.9375 565.492188 C 923.671875 564.945312 923.890625 564.285156 924.433594 564.011719 C 924.976562 563.742188 925.644531 563.960938 925.914062 564.503906 C 942.070312 596.847656 946.214844 649.566406 946.253906 650.09375 C 946.300781 650.699219 945.84375 651.230469 945.234375 651.273438 C 945.207031 651.277344 945.179688 651.277344 945.152344 651.277344 " fill-opacity="1" fill-rule="nonzero"/><path fill="#99b9ff" d="M 923.371094 575.085938 C 924.585938 576.382812 930.03125 582.460938 930.007812 591.851562 C 929.984375 601.113281 924.664062 609.90625 922.472656 609.371094 C 920.625 608.921875 919.875 601.613281 923.371094 575.085938 " fill-opacity="1" fill-rule="nonzero"/><path fill="#99b9ff" d="M 921.441406 567.648438 C 915.875 574.296875 907.007812 583.308594 894.089844 590.765625 C 879.8125 599.011719 860.519531 605.386719 858.28125 601.621094 C 856.445312 598.539062 866.394531 589.273438 871.46875 585.148438 C 878.910156 579.097656 894.527344 568.941406 921.441406 567.648438 " fill-opacity="1" fill-rule="nonzero"/><path fill="#99b9ff" d="M 919.964844 562.078125 C 914.484375 555.636719 905.367188 546.773438 891.867188 540.796875 C 863.101562 528.0625 830.0625 535.332031 829.535156 540.832031 C 829.253906 543.78125 838.558594 543.835938 864.539062 555.796875 C 881.832031 563.75 888.714844 568.789062 900.441406 568.191406 C 908.835938 567.761719 915.570312 564.65625 919.964844 562.078125 " fill-opacity="1" fill-rule="nonzero"/><path fill="#99b9ff" d="M 925.390625 561.484375 C 932.191406 554.742188 943.898438 545.167969 960.699219 540.589844 C 971.261719 537.714844 988.027344 535.664062 989.710938 540.0625 C 991.515625 544.785156 976.058594 557.195312 959.449219 561.863281 C 945.285156 565.84375 932.683594 563.523438 925.390625 561.484375 " fill-opacity="1" fill-rule="nonzero"/><path fill="#5479f7" d="M 715.410156 591.703125 C 697.496094 602.070312 674.5625 595.953125 664.195312 578.035156 C 653.824219 560.121094 659.941406 537.1875 677.855469 526.820312 C 695.773438 516.449219 718.707031 522.570312 729.074219 540.484375 C 739.445312 558.402344 733.328125 581.328125 715.410156 591.703125 Z M 765.472656 527.828125 L 758.175781 515.226562 L 743 519.96875 C 740.789062 517.351562 738.394531 514.953125 735.828125 512.789062 L 740.535156 497.621094 L 727.917969 490.351562 L 717.140625 502.054688 C 713.953125 500.914062 710.679688 500.042969 707.347656 499.441406 L 703.832031 483.929688 L 689.273438 483.945312 L 685.792969 499.441406 C 682.496094 500.039062 679.222656 500.929688 676 502.09375 L 665.203125 490.421875 L 652.601562 497.714844 L 657.339844 512.894531 C 654.730469 515.105469 652.328125 517.503906 650.167969 520.0625 L 634.996094 515.359375 L 627.726562 527.980469 L 639.425781 538.753906 C 638.285156 541.9375 637.414062 545.214844 636.816406 548.542969 L 621.300781 552.0625 L 621.316406 566.621094 L 636.816406 570.101562 C 637.414062 573.398438 638.304688 576.671875 639.472656 579.890625 L 627.796875 590.691406 L 635.089844 603.292969 L 650.265625 598.550781 C 652.480469 601.167969 654.875 603.566406 657.433594 605.730469 L 652.734375 620.902344 L 665.351562 628.167969 L 676.128906 616.464844 C 679.3125 617.605469 682.589844 618.480469 685.917969 619.078125 L 689.433594 634.589844 L 703.996094 634.578125 L 707.472656 619.078125 C 710.773438 618.480469 714.042969 617.589844 717.265625 616.425781 L 728.0625 628.101562 L 740.667969 620.804688 L 735.921875 605.625 C 738.539062 603.414062 740.941406 601.019531 743.101562 598.457031 L 758.273438 603.160156 L 765.539062 590.542969 L 753.839844 579.769531 C 754.980469 576.582031 755.855469 573.308594 756.453125 569.976562 L 771.964844 566.460938 L 771.949219 551.898438 L 756.453125 548.421875 C 755.855469 545.125 754.964844 541.847656 753.796875 538.628906 L 765.472656 527.828125 " fill-opacity="1" fill-rule="nonzero"/><path fill="#000000" d="M 689.652344 521.015625 C 683.335938 521.015625 677.101562 522.679688 671.488281 525.925781 C 663.078125 530.796875 657.066406 538.644531 654.5625 548.035156 C 652.054688 557.425781 653.359375 567.226562 658.226562 575.636719 C 663.09375 584.046875 670.945312 590.0625 680.332031 592.5625 C 689.71875 595.070312 699.527344 593.769531 707.9375 588.898438 C 716.347656 584.035156 722.359375 576.179688 724.863281 566.792969 C 727.367188 557.402344 726.066406 547.597656 721.199219 539.1875 C 716.328125 530.78125 708.480469 524.769531 699.089844 522.261719 C 695.96875 521.429688 692.796875 521.015625 689.652344 521.015625 Z M 689.773438 596.019531 C 686.4375 596.019531 683.074219 595.582031 679.765625 594.695312 C 669.808594 592.039062 661.480469 585.664062 656.316406 576.742188 C 651.15625 567.824219 649.773438 557.425781 652.433594 547.464844 C 655.085938 537.511719 661.464844 529.179688 670.386719 524.015625 C 679.304688 518.855469 689.699219 517.476562 699.660156 520.132812 C 709.617188 522.789062 717.945312 529.164062 723.109375 538.085938 C 728.269531 547.003906 729.648438 557.402344 726.992188 567.359375 C 724.335938 577.320312 717.960938 585.644531 709.039062 590.808594 C 703.085938 594.257812 696.476562 596.019531 689.773438 596.019531 Z M 669.207031 613.519531 C 669.332031 613.519531 669.457031 613.539062 669.582031 613.582031 C 672.695312 614.699219 675.929688 615.5625 679.191406 616.144531 C 679.625 616.226562 679.972656 616.554688 680.074219 616.992188 L 683.394531 631.640625 L 696.191406 631.628906 L 699.476562 616.992188 C 699.574219 616.558594 699.921875 616.226562 700.355469 616.144531 C 703.566406 615.5625 706.804688 614.6875 709.96875 613.542969 C 710.386719 613.386719 710.851562 613.503906 711.152344 613.828125 L 721.351562 624.855469 L 732.429688 618.445312 L 727.949219 604.109375 C 727.816406 603.683594 727.949219 603.222656 728.289062 602.9375 C 730.859375 600.765625 733.230469 598.398438 735.335938 595.898438 C 735.625 595.5625 736.089844 595.425781 736.507812 595.558594 L 750.835938 600 L 757.222656 588.910156 L 746.171875 578.730469 C 745.847656 578.429688 745.734375 577.964844 745.878906 577.550781 C 746.996094 574.429688 747.859375 571.199219 748.445312 567.933594 C 748.523438 567.5 748.855469 567.152344 749.285156 567.054688 L 763.941406 563.730469 L 763.925781 550.9375 L 749.289062 547.648438 C 748.855469 547.550781 748.523438 547.207031 748.445312 546.769531 C 747.867188 543.558594 746.988281 540.328125 745.839844 537.15625 C 745.691406 536.738281 745.804688 536.277344 746.128906 535.972656 L 757.15625 525.773438 L 750.746094 514.695312 L 736.40625 519.175781 C 735.984375 519.308594 735.523438 519.175781 735.238281 518.832031 C 733.0625 516.265625 730.699219 513.894531 728.199219 511.789062 C 727.859375 511.503906 727.722656 511.042969 727.859375 510.617188 L 732.300781 496.289062 L 721.210938 489.902344 L 711.03125 500.957031 C 710.730469 501.28125 710.261719 501.394531 709.84375 501.246094 C 706.726562 500.128906 703.496094 499.265625 700.234375 498.679688 C 699.796875 498.605469 699.449219 498.273438 699.351562 497.839844 L 696.03125 483.183594 L 683.234375 483.199219 L 679.949219 497.839844 C 679.851562 498.269531 679.503906 498.605469 679.070312 498.679688 C 675.855469 499.265625 672.621094 500.140625 669.457031 501.285156 C 669.039062 501.4375 668.574219 501.324219 668.273438 500.996094 L 658.070312 489.972656 L 646.996094 496.382812 L 651.476562 510.71875 C 651.605469 511.140625 651.472656 511.605469 651.136719 511.890625 C 648.566406 514.0625 646.195312 516.429688 644.085938 518.925781 C 643.800781 519.269531 643.339844 519.402344 642.917969 519.273438 L 628.589844 514.828125 L 622.203125 525.917969 L 633.253906 536.09375 C 633.578125 536.394531 633.691406 536.863281 633.542969 537.28125 C 632.425781 540.402344 631.5625 543.636719 630.980469 546.890625 C 630.902344 547.328125 630.570312 547.675781 630.136719 547.773438 L 615.484375 551.097656 L 615.5 563.890625 L 630.136719 567.175781 C 630.570312 567.273438 630.902344 567.621094 630.980469 568.058594 C 631.5625 571.269531 632.4375 574.503906 633.585938 577.667969 C 633.734375 578.085938 633.621094 578.554688 633.296875 578.851562 L 622.269531 589.054688 L 628.679688 600.128906 L 643.019531 595.652344 C 643.441406 595.519531 643.902344 595.65625 644.1875 595.992188 C 646.359375 598.5625 648.726562 600.929688 651.226562 603.039062 C 651.566406 603.328125 651.703125 603.785156 651.570312 604.207031 L 647.125 618.539062 L 658.214844 624.921875 L 668.394531 613.875 C 668.609375 613.644531 668.902344 613.519531 669.207031 613.519531 Z M 682.511719 633.851562 C 682 633.851562 681.550781 633.492188 681.4375 632.988281 L 678.082031 618.183594 C 675.183594 617.628906 672.3125 616.863281 669.527344 615.902344 L 659.242188 627.066406 C 658.894531 627.445312 658.328125 627.53125 657.878906 627.277344 L 645.261719 620.007812 C 644.8125 619.753906 644.605469 619.21875 644.761719 618.726562 L 649.246094 604.25 C 647.039062 602.339844 644.9375 600.234375 642.980469 597.972656 L 628.496094 602.5 C 628.007812 602.65625 627.472656 602.445312 627.210938 602 L 619.921875 589.398438 C 619.660156 588.949219 619.746094 588.386719 620.125 588.035156 L 631.265625 577.730469 C 630.277344 574.90625 629.5 572.035156 628.945312 569.171875 L 614.15625 565.851562 C 613.652344 565.738281 613.292969 565.292969 613.292969 564.777344 L 613.277344 550.214844 C 613.277344 549.699219 613.632812 549.25 614.136719 549.136719 L 628.941406 545.78125 C 629.496094 542.890625 630.261719 540.019531 631.226562 537.226562 L 620.058594 526.941406 C 619.679688 526.59375 619.59375 526.027344 619.851562 525.578125 L 627.117188 512.964844 C 627.375 512.515625 627.90625 512.304688 628.398438 512.460938 L 642.878906 516.949219 C 644.789062 514.738281 646.898438 512.636719 649.152344 510.679688 L 644.628906 496.195312 C 644.472656 495.707031 644.679688 495.171875 645.128906 494.914062 L 657.730469 487.621094 C 658.175781 487.363281 658.742188 487.445312 659.089844 487.828125 L 669.398438 498.96875 C 672.214844 497.980469 675.089844 497.203125 677.957031 496.644531 L 681.273438 481.855469 C 681.386719 481.351562 681.835938 480.996094 682.347656 480.996094 L 696.910156 480.976562 L 696.914062 480.976562 C 697.425781 480.976562 697.875 481.335938 697.988281 481.839844 L 701.339844 496.644531 C 704.238281 497.199219 707.113281 497.964844 709.898438 498.925781 L 720.183594 487.761719 C 720.53125 487.378906 721.101562 487.292969 721.546875 487.550781 L 734.164062 494.820312 C 734.613281 495.074219 734.820312 495.609375 734.664062 496.101562 L 730.175781 510.578125 C 732.382812 512.488281 734.488281 514.59375 736.445312 516.851562 L 750.929688 512.324219 C 751.421875 512.171875 751.953125 512.382812 752.214844 512.828125 L 759.503906 525.429688 C 759.765625 525.875 759.679688 526.441406 759.300781 526.789062 L 748.164062 537.097656 C 749.148438 539.921875 749.925781 542.796875 750.480469 545.65625 L 765.269531 548.976562 C 765.773438 549.089844 766.132812 549.535156 766.132812 550.050781 L 766.148438 564.613281 C 766.148438 565.125 765.789062 565.574219 765.289062 565.6875 L 750.480469 569.046875 C 749.925781 571.941406 749.160156 574.816406 748.199219 577.601562 L 759.367188 587.886719 C 759.746094 588.234375 759.832031 588.796875 759.574219 589.246094 L 752.308594 601.867188 C 752.050781 602.3125 751.523438 602.523438 751.023438 602.367188 L 736.546875 597.878906 C 734.636719 600.085938 732.53125 602.1875 730.273438 604.144531 L 734.796875 618.628906 C 734.953125 619.121094 734.746094 619.652344 734.296875 619.914062 L 721.695312 627.207031 C 721.25 627.464844 720.683594 627.378906 720.335938 627.003906 L 710.027344 615.863281 C 707.207031 616.847656 704.332031 617.628906 701.46875 618.183594 L 698.152344 632.972656 C 698.039062 633.472656 697.589844 633.832031 697.074219 633.832031 L 682.515625 633.851562 L 682.511719 633.851562 " fill-opacity="1" fill-rule="nonzero"/><path fill="#000000" d="M 687.496094 655.71875 C 663.371094 655.71875 640.695312 646.324219 623.640625 629.269531 C 588.429688 594.0625 588.429688 536.773438 623.640625 501.5625 L 637.925781 487.28125 C 638.355469 486.847656 639.054688 486.847656 639.484375 487.28125 C 639.914062 487.710938 639.914062 488.40625 639.484375 488.839844 L 625.199219 503.121094 C 590.851562 537.46875 590.851562 593.363281 625.199219 627.710938 C 659.546875 662.058594 715.4375 662.0625 749.785156 627.710938 L 807.703125 569.792969 C 808.136719 569.363281 808.832031 569.363281 809.261719 569.792969 C 809.695312 570.222656 809.695312 570.925781 809.261719 571.355469 L 751.347656 629.269531 C 734.292969 646.324219 711.613281 655.71875 687.496094 655.71875 " fill-opacity="1" fill-rule="nonzero"/><path fill="#000000" d="M 857.703125 522.460938 C 857.417969 522.460938 857.132812 522.351562 856.921875 522.136719 C 856.492188 521.707031 856.492188 521.007812 856.921875 520.578125 L 875.109375 502.390625 C 875.539062 501.957031 876.238281 501.957031 876.667969 502.390625 C 877.101562 502.820312 877.101562 503.515625 876.667969 503.949219 L 858.476562 522.136719 C 858.265625 522.351562 857.980469 522.460938 857.703125 522.460938 " fill-opacity="1" fill-rule="nonzero"/><path fill="#000000" d="M 911.507812 468.652344 C 911.226562 468.652344 910.945312 468.546875 910.730469 468.328125 C 910.300781 467.898438 910.300781 467.199219 910.730469 466.769531 L 925.746094 451.753906 C 926.175781 451.324219 926.871094 451.324219 927.304688 451.753906 C 927.734375 452.183594 927.734375 452.882812 927.304688 453.3125 L 912.289062 468.328125 C 912.074219 468.546875 911.789062 468.652344 911.507812 468.652344 " fill-opacity="1" fill-rule="nonzero"/><path fill="#000000" d="M 952.726562 427.433594 C 952.441406 427.433594 952.160156 427.328125 951.945312 427.109375 C 951.511719 426.679688 951.511719 425.984375 951.945312 425.554688 L 1000.625 376.875 C 1001.054688 376.441406 1001.753906 376.441406 1002.1875 376.875 C 1002.613281 377.304688 1002.613281 378.003906 1002.1875 378.433594 L 953.507812 427.109375 C 953.289062 427.328125 953.007812 427.433594 952.726562 427.433594 " fill-opacity="1" fill-rule="nonzero"/><path fill="#000000" d="M 646.683594 483.03125 C 646.402344 483.03125 646.117188 482.921875 645.90625 482.707031 C 645.46875 482.277344 645.46875 481.578125 645.90625 481.148438 L 765.835938 361.214844 C 766.269531 360.78125 766.96875 360.78125 767.398438 361.214844 C 767.828125 361.644531 767.828125 362.339844 767.398438 362.773438 L 647.464844 482.707031 C 647.246094 482.921875 646.964844 483.03125 646.683594 483.03125 " fill-opacity="1" fill-rule="nonzero"/><path fill="#5479f7" d="M 832.015625 492.601562 C 818.5625 500.386719 801.34375 495.796875 793.554688 482.339844 C 785.769531 468.886719 790.359375 451.667969 803.816406 443.878906 C 817.269531 436.09375 834.488281 440.6875 842.277344 454.136719 C 850.066406 467.597656 845.46875 484.8125 832.015625 492.601562 Z M 869.609375 444.636719 L 864.132812 435.175781 L 852.734375 438.734375 C 851.074219 436.773438 849.273438 434.96875 847.351562 433.347656 L 850.882812 421.949219 L 841.40625 416.496094 L 833.316406 425.28125 C 830.921875 424.425781 828.464844 423.769531 825.960938 423.316406 L 823.324219 411.667969 L 812.390625 411.679688 L 809.777344 423.316406 C 807.300781 423.769531 804.839844 424.4375 802.425781 425.308594 L 794.3125 416.542969 L 784.847656 422.023438 L 788.410156 433.421875 C 786.441406 435.085938 784.644531 436.882812 783.019531 438.804688 L 771.625 435.273438 L 766.171875 444.75 L 774.957031 452.839844 C 774.097656 455.234375 773.445312 457.695312 772.996094 460.191406 L 761.34375 462.832031 L 761.359375 473.769531 L 772.996094 476.378906 C 773.445312 478.855469 774.109375 481.316406 774.988281 483.734375 L 766.21875 491.84375 L 771.695312 501.304688 L 783.097656 497.746094 C 784.757812 499.710938 786.558594 501.511719 788.480469 503.136719 L 784.949219 514.527344 L 794.425781 519.984375 L 802.515625 511.203125 C 804.90625 512.054688 807.367188 512.714844 809.871094 513.160156 L 812.511719 524.8125 L 823.441406 524.796875 L 826.054688 513.160156 C 828.535156 512.714844 830.992188 512.046875 833.40625 511.167969 L 841.519531 519.933594 L 850.984375 514.457031 L 847.421875 503.058594 C 849.386719 501.398438 851.191406 499.601562 852.8125 497.675781 L 864.207031 501.207031 L 869.664062 491.730469 L 860.875 483.640625 C 861.734375 481.25 862.386719 478.789062 862.835938 476.289062 L 874.488281 473.644531 L 874.472656 462.710938 L 862.835938 460.097656 C 862.386719 457.625 861.71875 455.164062 860.84375 452.746094 L 869.609375 444.636719 " fill-opacity="1" fill-rule="nonzero"/><path fill="#000000" d="M 812.671875 439.816406 C 808.074219 439.816406 803.425781 440.984375 799.167969 443.449219 C 792.917969 447.066406 788.449219 452.902344 786.585938 459.882812 C 784.726562 466.859375 785.6875 474.152344 789.308594 480.402344 C 796.78125 493.308594 813.359375 497.734375 826.265625 490.261719 C 839.167969 482.792969 843.59375 466.214844 836.125 453.308594 C 831.121094 444.65625 822.015625 439.816406 812.671875 439.816406 Z M 812.765625 496.101562 C 802.65625 496.101562 792.816406 490.863281 787.398438 481.507812 C 783.488281 474.742188 782.445312 466.859375 784.453125 459.3125 C 786.472656 451.761719 791.304688 445.453125 798.0625 441.539062 C 812.023438 433.457031 829.957031 438.238281 838.03125 452.199219 C 846.113281 466.160156 841.328125 484.09375 827.367188 492.171875 C 822.769531 494.832031 817.734375 496.101562 812.765625 496.101562 Z M 797.320312 508.714844 C 797.445312 508.714844 797.570312 508.734375 797.691406 508.777344 C 800.019531 509.609375 802.429688 510.25 804.867188 510.6875 C 805.300781 510.769531 805.648438 511.097656 805.746094 511.535156 L 808.191406 522.324219 L 817.359375 522.3125 L 819.78125 511.535156 C 819.878906 511.101562 820.222656 510.769531 820.660156 510.6875 C 823.0625 510.253906 825.472656 509.601562 827.835938 508.746094 C 828.253906 508.59375 828.71875 508.710938 829.019531 509.03125 L 836.53125 517.152344 L 844.46875 512.5625 L 841.167969 502 C 841.039062 501.578125 841.171875 501.117188 841.511719 500.832031 C 843.429688 499.207031 845.199219 497.441406 846.769531 495.578125 C 847.050781 495.238281 847.519531 495.101562 847.945312 495.234375 L 858.488281 498.507812 L 863.066406 490.5625 L 854.929688 483.066406 C 854.601562 482.765625 854.492188 482.296875 854.640625 481.882812 C 855.472656 479.554688 856.113281 477.140625 856.554688 474.707031 C 856.632812 474.269531 856.964844 473.921875 857.394531 473.828125 L 868.1875 471.378906 L 868.175781 462.210938 L 857.394531 459.792969 C 856.964844 459.695312 856.632812 459.347656 856.554688 458.910156 C 856.117188 456.511719 855.464844 454.101562 854.609375 451.738281 C 854.457031 451.320312 854.570312 450.851562 854.898438 450.550781 L 863.015625 443.042969 L 858.421875 435.101562 L 847.867188 438.402344 C 847.445312 438.535156 846.980469 438.402344 846.695312 438.058594 C 845.074219 436.144531 843.300781 434.371094 841.441406 432.800781 C 841.101562 432.519531 840.96875 432.054688 841.101562 431.632812 L 844.371094 421.082031 L 836.425781 416.503906 L 828.925781 424.640625 C 828.628906 424.96875 828.160156 425.082031 827.746094 424.933594 C 825.414062 424.097656 823 423.457031 820.566406 423.019531 C 820.132812 422.945312 819.789062 422.609375 819.6875 422.179688 L 817.242188 411.386719 L 808.074219 411.398438 L 805.652344 422.175781 C 805.554688 422.609375 805.207031 422.941406 804.773438 423.019531 C 802.375 423.453125 799.960938 424.105469 797.601562 424.960938 C 797.183594 425.113281 796.71875 425 796.414062 424.671875 L 788.902344 416.554688 L 780.96875 421.148438 L 784.265625 431.707031 C 784.394531 432.132812 784.261719 432.589844 783.925781 432.878906 C 782.007812 434.5 780.242188 436.265625 778.664062 438.128906 C 778.375 438.46875 777.917969 438.605469 777.496094 438.46875 L 766.945312 435.199219 L 762.367188 443.148438 L 770.503906 450.644531 C 770.832031 450.941406 770.945312 451.410156 770.796875 451.828125 C 769.960938 454.15625 769.316406 456.570312 768.882812 459.003906 C 768.800781 459.4375 768.472656 459.785156 768.039062 459.882812 L 757.253906 462.332031 L 757.261719 471.496094 L 768.035156 473.917969 C 768.472656 474.015625 768.800781 474.363281 768.882812 474.800781 C 769.316406 477.195312 769.972656 479.609375 770.824219 481.96875 C 770.976562 482.386719 770.867188 482.855469 770.539062 483.160156 L 762.417969 490.667969 L 767.015625 498.605469 L 777.570312 495.308594 C 777.996094 495.175781 778.453125 495.3125 778.742188 495.648438 C 780.363281 497.566406 782.128906 499.335938 783.996094 500.90625 C 784.332031 501.195312 784.46875 501.652344 784.335938 502.078125 L 781.066406 512.628906 L 789.011719 517.203125 L 796.503906 509.066406 C 796.71875 508.835938 797.015625 508.714844 797.320312 508.714844 Z M 807.3125 524.527344 C 806.792969 524.527344 806.351562 524.171875 806.234375 523.667969 L 803.753906 512.726562 C 801.683594 512.320312 799.632812 511.773438 797.640625 511.09375 L 790.039062 519.347656 C 789.6875 519.726562 789.121094 519.8125 788.671875 519.554688 L 779.199219 514.101562 C 778.75 513.84375 778.542969 513.308594 778.695312 512.816406 L 782.015625 502.113281 C 780.441406 500.742188 778.9375 499.238281 777.539062 497.628906 L 766.828125 500.972656 C 766.335938 501.128906 765.804688 500.921875 765.546875 500.472656 L 760.066406 491.011719 C 759.808594 490.5625 759.898438 489.996094 760.273438 489.648438 L 768.511719 482.03125 C 767.8125 480.011719 767.253906 477.957031 766.847656 475.914062 L 755.917969 473.457031 C 755.414062 473.34375 755.054688 472.902344 755.054688 472.382812 L 755.042969 461.449219 C 755.042969 460.9375 755.398438 460.488281 755.902344 460.371094 L 766.847656 457.894531 C 767.25 455.828125 767.796875 453.773438 768.476562 451.777344 L 760.222656 444.175781 C 759.84375 443.824219 759.757812 443.257812 760.015625 442.8125 L 765.472656 433.335938 C 765.730469 432.890625 766.261719 432.679688 766.757812 432.832031 L 777.457031 436.152344 C 778.832031 434.578125 780.332031 433.074219 781.941406 431.671875 L 778.597656 420.96875 C 778.441406 420.472656 778.652344 419.941406 779.097656 419.679688 L 788.5625 414.207031 C 789.011719 413.949219 789.574219 414.03125 789.925781 414.410156 L 797.542969 422.644531 C 799.558594 421.949219 801.609375 421.390625 803.65625 420.980469 L 806.113281 410.054688 C 806.226562 409.550781 806.667969 409.191406 807.1875 409.191406 L 818.121094 409.179688 C 818.121094 409.179688 818.121094 409.179688 818.125 409.179688 C 818.640625 409.179688 819.085938 409.535156 819.199219 410.039062 L 821.679688 420.980469 C 823.742188 421.390625 825.796875 421.933594 827.796875 422.617188 L 835.398438 414.363281 C 835.746094 413.984375 836.3125 413.894531 836.761719 414.152344 L 846.234375 419.609375 C 846.683594 419.867188 846.890625 420.402344 846.734375 420.894531 L 843.417969 431.59375 C 844.992188 432.964844 846.496094 434.46875 847.902344 436.078125 L 858.609375 432.734375 C 859.097656 432.582031 859.632812 432.789062 859.890625 433.234375 L 865.363281 442.699219 C 865.625 443.140625 865.539062 443.710938 865.164062 444.0625 L 856.929688 451.675781 C 857.628906 453.699219 858.179688 455.75 858.585938 457.800781 L 869.519531 460.25 C 870.023438 460.367188 870.378906 460.808594 870.378906 461.328125 L 870.390625 472.261719 C 870.390625 472.777344 870.035156 473.222656 869.53125 473.335938 L 858.585938 475.816406 C 858.183594 477.886719 857.636719 479.9375 856.960938 481.933594 L 865.210938 489.535156 C 865.589844 489.886719 865.675781 490.449219 865.421875 490.898438 L 859.960938 500.371094 C 859.703125 500.820312 859.175781 501.027344 858.679688 500.878906 L 847.976562 497.558594 C 846.605469 499.132812 845.101562 500.632812 843.492188 502.039062 L 846.835938 512.746094 C 846.988281 513.234375 846.785156 513.769531 846.335938 514.027344 L 836.871094 519.507812 C 836.429688 519.761719 835.863281 519.675781 835.507812 519.300781 L 827.894531 511.066406 C 825.871094 511.761719 823.824219 512.316406 821.773438 512.726562 L 819.320312 523.65625 C 819.207031 524.15625 818.761719 524.515625 818.242188 524.515625 L 807.3125 524.527344 " fill-opacity="1" fill-rule="nonzero"/><path fill="#000000" d="M 598.960938 243.714844 C 598.679688 243.714844 598.398438 243.609375 598.183594 243.390625 C 597.75 242.960938 597.75 242.261719 598.183594 241.832031 L 651.433594 188.582031 C 651.863281 188.148438 652.566406 188.148438 652.996094 188.582031 C 653.425781 189.011719 653.425781 189.707031 652.996094 190.140625 L 599.742188 243.390625 C 599.527344 243.609375 599.246094 243.714844 598.960938 243.714844 " fill-opacity="1" fill-rule="nonzero"/><path fill="#000000" d="M 544.664062 264.121094 C 544.382812 264.121094 544.101562 264.011719 543.886719 263.796875 C 543.457031 263.367188 543.457031 262.671875 543.886719 262.242188 L 618.382812 187.742188 C 618.816406 187.308594 619.511719 187.308594 619.941406 187.742188 C 620.375 188.171875 620.375 188.871094 619.941406 189.300781 L 545.445312 263.796875 C 545.230469 264.011719 544.949219 264.121094 544.664062 264.121094 " fill-opacity="1" fill-rule="nonzero"/><g fill="#4d5aae" fill-opacity="1"><g transform="translate(604.396488, 354.564113)"><g><path d="M 4.46875 0.171875 C 3.832031 0.171875 3.332031 -0.00390625 2.96875 -0.359375 C 2.601562 -0.710938 2.421875 -1.1875 2.421875 -1.78125 C 2.421875 -2.351562 2.601562 -2.820312 2.96875 -3.1875 C 3.332031 -3.5625 3.832031 -3.75 4.46875 -3.75 C 5.101562 -3.75 5.601562 -3.570312 5.96875 -3.21875 C 6.34375 -2.863281 6.53125 -2.394531 6.53125 -1.8125 C 6.53125 -1.226562 6.34375 -0.75 5.96875 -0.375 C 5.59375 -0.0078125 5.09375 0.171875 4.46875 0.171875 Z M 4.46875 0.171875 "/></g></g></g></svg>