<svg xmlns="http://www.w3.org/2000/svg" xmlns:xlink="http://www.w3.org/1999/xlink" zoomAndPan="magnify" preserveAspectRatio="xMidYMid meet" version="1.0" viewBox="98.1 100.09 28.69 19.52"><defs><g/></defs><g fill="#ffffff" fill-opacity="1"><g transform="translate(97.476109, 119.246405)"><g><path d="M 8.25 -11.1875 C 9.207031 -10.988281 10.191406 -10.769531 11.203125 -10.53125 C 12.210938 -10.289062 13.144531 -9.960938 14 -9.546875 C 14.863281 -9.140625 15.5625 -8.585938 16.09375 -7.890625 C 16.632812 -7.191406 16.90625 -6.289062 16.90625 -5.1875 C 16.90625 -3.882812 16.53125 -2.820312 15.78125 -2 C 15.03125 -1.1875 14.066406 -0.585938 12.890625 -0.203125 C 11.710938 0.171875 10.460938 0.359375 9.140625 0.359375 C 7.503906 0.359375 6.03125 0.140625 4.71875 -0.296875 C 3.414062 -0.734375 2.144531 -1.523438 0.90625 -2.671875 C 0.644531 -2.953125 0.566406 -3.207031 0.671875 -3.4375 C 0.785156 -3.664062 0.953125 -3.78125 1.171875 -3.78125 C 1.367188 -3.78125 1.546875 -3.671875 1.703125 -3.453125 C 2.242188 -2.710938 2.914062 -2.101562 3.71875 -1.625 C 4.519531 -1.144531 5.359375 -0.796875 6.234375 -0.578125 C 7.117188 -0.367188 7.945312 -0.273438 8.71875 -0.296875 C 9.882812 -0.335938 10.914062 -0.578125 11.8125 -1.015625 C 12.707031 -1.453125 13.40625 -2.007812 13.90625 -2.6875 C 14.40625 -3.375 14.648438 -4.085938 14.640625 -4.828125 C 14.628906 -5.566406 14.304688 -6.25 13.671875 -6.875 C 13.035156 -7.507812 12.015625 -7.988281 10.609375 -8.3125 C 9.648438 -8.550781 8.632812 -8.78125 7.5625 -9 C 6.5 -9.21875 5.5 -9.503906 4.5625 -9.859375 C 3.632812 -10.222656 2.878906 -10.722656 2.296875 -11.359375 C 1.722656 -12.003906 1.4375 -12.84375 1.4375 -13.875 C 1.4375 -15.113281 1.773438 -16.125 2.453125 -16.90625 C 3.140625 -17.6875 4.019531 -18.253906 5.09375 -18.609375 C 6.175781 -18.972656 7.304688 -19.15625 8.484375 -19.15625 C 9.828125 -19.15625 11.128906 -18.9375 12.390625 -18.5 C 12.828125 -18.382812 13.296875 -18.175781 13.796875 -17.875 L 13.859375 -17.875 C 14.117188 -17.707031 14.351562 -17.539062 14.5625 -17.375 C 14.769531 -17.207031 14.941406 -17.039062 15.078125 -16.875 C 15.503906 -16.375 15.625 -15.9375 15.4375 -15.5625 C 15.257812 -15.195312 14.988281 -15.015625 14.625 -15.015625 C 14.488281 -15.015625 14.332031 -15.0625 14.15625 -15.15625 C 13.988281 -15.25 13.847656 -15.394531 13.734375 -15.59375 C 13.578125 -15.875 13.46875 -16.15625 13.40625 -16.4375 C 13.34375 -16.726562 13.207031 -17.015625 13 -17.296875 C 12.789062 -17.578125 12.375 -17.835938 11.75 -18.078125 C 10.789062 -18.378906 9.753906 -18.53125 8.640625 -18.53125 C 7.753906 -18.53125 6.921875 -18.410156 6.140625 -18.171875 C 5.367188 -17.929688 4.738281 -17.546875 4.25 -17.015625 C 3.769531 -16.484375 3.53125 -15.789062 3.53125 -14.9375 C 3.53125 -14.4375 3.648438 -13.945312 3.890625 -13.46875 C 4.128906 -13 4.585938 -12.570312 5.265625 -12.1875 C 5.953125 -11.800781 6.945312 -11.46875 8.25 -11.1875 Z M 8.25 -11.1875 "/></g></g></g><g fill="#ffffff" fill-opacity="1"><g transform="translate(109.889474, 119.246405)"><g><path d="M 8.25 -11.1875 C 9.207031 -10.988281 10.191406 -10.769531 11.203125 -10.53125 C 12.210938 -10.289062 13.144531 -9.960938 14 -9.546875 C 14.863281 -9.140625 15.5625 -8.585938 16.09375 -7.890625 C 16.632812 -7.191406 16.90625 -6.289062 16.90625 -5.1875 C 16.90625 -3.882812 16.53125 -2.820312 15.78125 -2 C 15.03125 -1.1875 14.066406 -0.585938 12.890625 -0.203125 C 11.710938 0.171875 10.460938 0.359375 9.140625 0.359375 C 7.503906 0.359375 6.03125 0.140625 4.71875 -0.296875 C 3.414062 -0.734375 2.144531 -1.523438 0.90625 -2.671875 C 0.644531 -2.953125 0.566406 -3.207031 0.671875 -3.4375 C 0.785156 -3.664062 0.953125 -3.78125 1.171875 -3.78125 C 1.367188 -3.78125 1.546875 -3.671875 1.703125 -3.453125 C 2.242188 -2.710938 2.914062 -2.101562 3.71875 -1.625 C 4.519531 -1.144531 5.359375 -0.796875 6.234375 -0.578125 C 7.117188 -0.367188 7.945312 -0.273438 8.71875 -0.296875 C 9.882812 -0.335938 10.914062 -0.578125 11.8125 -1.015625 C 12.707031 -1.453125 13.40625 -2.007812 13.90625 -2.6875 C 14.40625 -3.375 14.648438 -4.085938 14.640625 -4.828125 C 14.628906 -5.566406 14.304688 -6.25 13.671875 -6.875 C 13.035156 -7.507812 12.015625 -7.988281 10.609375 -8.3125 C 9.648438 -8.550781 8.632812 -8.78125 7.5625 -9 C 6.5 -9.21875 5.5 -9.503906 4.5625 -9.859375 C 3.632812 -10.222656 2.878906 -10.722656 2.296875 -11.359375 C 1.722656 -12.003906 1.4375 -12.84375 1.4375 -13.875 C 1.4375 -15.113281 1.773438 -16.125 2.453125 -16.90625 C 3.140625 -17.6875 4.019531 -18.253906 5.09375 -18.609375 C 6.175781 -18.972656 7.304688 -19.15625 8.484375 -19.15625 C 9.828125 -19.15625 11.128906 -18.9375 12.390625 -18.5 C 12.828125 -18.382812 13.296875 -18.175781 13.796875 -17.875 L 13.859375 -17.875 C 14.117188 -17.707031 14.351562 -17.539062 14.5625 -17.375 C 14.769531 -17.207031 14.941406 -17.039062 15.078125 -16.875 C 15.503906 -16.375 15.625 -15.9375 15.4375 -15.5625 C 15.257812 -15.195312 14.988281 -15.015625 14.625 -15.015625 C 14.488281 -15.015625 14.332031 -15.0625 14.15625 -15.15625 C 13.988281 -15.25 13.847656 -15.394531 13.734375 -15.59375 C 13.578125 -15.875 13.46875 -16.15625 13.40625 -16.4375 C 13.34375 -16.726562 13.207031 -17.015625 13 -17.296875 C 12.789062 -17.578125 12.375 -17.835938 11.75 -18.078125 C 10.789062 -18.378906 9.753906 -18.53125 8.640625 -18.53125 C 7.753906 -18.53125 6.921875 -18.410156 6.140625 -18.171875 C 5.367188 -17.929688 4.738281 -17.546875 4.25 -17.015625 C 3.769531 -16.484375 3.53125 -15.789062 3.53125 -14.9375 C 3.53125 -14.4375 3.648438 -13.945312 3.890625 -13.46875 C 4.128906 -13 4.585938 -12.570312 5.265625 -12.1875 C 5.953125 -11.800781 6.945312 -11.46875 8.25 -11.1875 Z M 8.25 -11.1875 "/></g></g></g></svg>